<svg width="131" height="34" viewBox="0 0 131 34" fill="none" xmlns="http://www.w3.org/2000/svg">
<g id="Calque_1" clip-path="url(#clip0_7_1109)">
<g id="Group">
<path id="Vector" d="M29.5379 29.5662C27.3864 30.3808 25.2402 30.8616 23.0022 30.5064C20.8875 30.1725 18.9144 29.5421 17.7862 27.44C17.0726 26.1125 16.8495 24.6808 16.9965 23.2117C17.2221 20.9226 18.046 18.8285 19.2319 16.8759C20.3365 15.0543 21.9737 14.1541 24.0543 14.122C25.8122 14.0953 27.5596 14.2102 29.2362 14.8379C29.3595 14.8833 29.4959 14.8993 29.6035 14.9234C29.7714 14.6669 29.9026 14.4292 30.0705 14.2182C30.5087 13.6653 31.1226 13.513 31.7313 13.7428C32.4345 14.0072 32.7493 14.6482 32.7598 15.3961C32.7913 17.6398 32.8307 19.8835 32.8097 22.1272C32.7887 24.5125 32.6942 26.8951 32.647 29.2803C32.626 30.3835 32.3426 30.8029 31.4453 30.9631C30.5952 31.1154 29.9656 30.7094 29.635 29.7959C29.6113 29.7318 29.5851 29.6703 29.5458 29.5688L29.5379 29.5662ZM29.8763 20.1693C29.8606 20.1693 29.8475 20.1693 29.8317 20.1693C29.8317 19.985 29.8003 19.7927 29.837 19.6138C30.0075 18.7991 29.572 18.4225 28.9187 18.0806C27.2211 17.1911 25.4134 17.1484 23.5873 17.2979C23.136 17.3353 22.5719 17.5891 22.299 17.9363C20.8612 19.7687 20.0085 21.8708 19.9613 24.2294C19.9403 25.3859 20.3024 26.4784 21.5119 26.9165C24.1461 27.8674 26.7043 27.6323 29.1312 26.2033C29.328 26.0884 29.5221 25.7973 29.5405 25.5729C29.6769 23.7726 29.7688 21.9696 29.8763 20.1693Z" fill="#4B5EBF"/>
<path id="Vector_2" d="M31.1042 31.4465C30.2961 31.4465 29.6533 30.9871 29.286 30.143C26.8511 31.0138 24.8781 31.2649 22.9313 30.9577C20.8953 30.6345 18.6441 29.9935 17.3926 27.6616C16.6711 26.3207 16.3877 24.8089 16.5504 23.1715C16.7682 20.9706 17.5212 18.8337 18.8488 16.6435C20.0242 14.7069 21.7716 13.708 24.0438 13.6732C25.5419 13.6492 27.5071 13.7133 29.3857 14.4158H29.3909C29.4906 14.2555 29.5956 14.0899 29.7189 13.935C30.2646 13.2459 31.0753 13.0162 31.8808 13.318C32.7047 13.6278 33.1848 14.3837 33.2006 15.3881L33.2084 15.9784C33.2373 17.9924 33.2688 20.0758 33.2504 22.1272C33.2373 23.5722 33.1979 25.036 33.1586 26.4543C33.1323 27.3972 33.1061 28.3401 33.0877 29.2856C33.0668 30.3941 32.7913 31.1794 31.5161 31.4064C31.3745 31.4305 31.238 31.4438 31.1068 31.4438L31.1042 31.4465ZM29.7871 28.9891L29.9865 29.486C30.0101 29.5447 30.0285 29.5901 30.0442 29.6355C30.3853 30.5731 30.9573 30.5864 31.3613 30.5143C31.9517 30.4101 32.1773 30.2739 32.1957 29.2696C32.214 28.324 32.2403 27.3785 32.2665 26.4329C32.3059 25.0199 32.3452 23.5589 32.3583 22.1218C32.3767 20.0811 32.3479 18.003 32.3164 15.9944L32.3085 15.4014C32.3032 14.9634 32.1694 14.3944 31.5686 14.1674C31.1173 13.9964 30.7185 14.114 30.4089 14.5039C30.3118 14.6268 30.2253 14.7657 30.1256 14.926C30.0757 15.0088 30.0232 15.0916 29.9681 15.177L29.8002 15.4361L29.5037 15.3694C29.4775 15.364 29.446 15.3587 29.4172 15.3533C29.3227 15.3373 29.202 15.3133 29.0787 15.2679C27.347 14.6215 25.5681 14.5574 24.0569 14.5814C22.1075 14.6108 20.6093 15.4655 19.607 17.1216C18.3503 19.1917 17.6392 21.203 17.4372 23.2624C17.2929 24.7154 17.5422 26.0483 18.1745 27.2262C19.2397 29.2055 21.1577 29.7584 23.0704 30.0629C24.9647 30.3621 26.9115 30.0789 29.383 29.1441L29.7871 28.9918V28.9891ZM24.642 27.9394C23.5662 27.9394 22.4722 27.7391 21.3649 27.3411C20.1265 26.895 19.489 25.8159 19.5178 24.2186C19.5624 21.8627 20.381 19.6511 21.9527 17.6505C22.341 17.1536 23.0546 16.8839 23.5505 16.8438C25.2507 16.7022 27.2447 16.6915 29.1207 17.6745C29.5798 17.9149 30.5401 18.4171 30.2699 19.7045C30.2699 19.7152 30.2672 19.7232 30.2646 19.7366L30.3433 19.7419L30.2436 21.4434C30.1649 22.8083 30.0862 24.2213 29.9813 25.6102C29.9524 25.9788 29.6821 26.4035 29.3516 26.5985C27.8298 27.496 26.2529 27.9447 24.6367 27.9447L24.642 27.9394ZM25.0382 17.6825C24.5528 17.6825 24.0779 17.7092 23.6266 17.7466C23.2698 17.776 22.8316 17.987 22.6506 18.2167C21.2049 20.0571 20.4519 22.0844 20.4099 24.2373C20.3863 25.4233 20.8087 26.1792 21.664 26.4863C24.1723 27.3918 26.6124 27.1621 28.9108 25.8079C28.9895 25.7625 29.0918 25.6022 29.0971 25.5354C29.202 24.1545 29.2807 22.7469 29.3594 21.3873L29.404 20.5913H29.3857V20.1639C29.3857 20.1132 29.383 20.0624 29.3804 20.0117C29.3725 19.8621 29.3647 19.6938 29.4014 19.5149C29.5011 19.0367 29.3542 18.815 28.714 18.4812C27.5176 17.8561 26.2398 17.6825 25.0355 17.6825H25.0382Z" fill="#4B5EBF"/>
</g>
<g id="Group_2">
<path id="Vector_3" d="M81.2936 28.1636C80.3097 27.9125 79.3153 27.6961 78.3445 27.3996C77.5259 27.1512 77.0562 26.5502 76.7991 25.7009C76.4003 24.384 75.7785 23.1259 75.4899 21.7904C75.0989 19.9955 75.7785 18.3741 76.9723 17.0867C79.8505 13.9802 83.4896 12.6741 87.6404 12.6901C89.6081 12.6981 91.4211 13.1629 92.9718 14.4557C94.9186 16.0797 95.3856 19.1808 94.0606 21.3791C92.9665 23.1927 91.3293 24.3733 89.6029 25.4685C87.4567 26.8307 83.6969 27.998 81.2962 28.1609L81.2936 28.1636ZM87.3911 15.7351C84.9641 15.7565 82.8022 16.5364 80.7846 17.7651C78.7774 18.9858 77.8434 20.6739 78.9952 23.1233C79.8872 25.0224 79.3546 24.6912 81.3513 24.8862C81.4615 24.8969 81.5769 24.8648 81.6897 24.8595C83.8202 24.7419 85.7696 24.0288 87.6377 23.0271C89.0598 22.2632 90.3507 21.355 91.3188 20.0115C91.9459 19.1407 91.9669 18.1097 91.3346 17.271C90.3139 15.9167 88.8525 15.7778 87.3911 15.7378V15.7351Z" fill="#4B5EBF"/>
<path id="Vector_4" d="M81.2515 28.6204L81.1833 28.6044C80.8869 28.5296 80.5904 28.4575 80.2913 28.3827C79.6091 28.2171 78.9033 28.0435 78.2133 27.8351C77.3081 27.56 76.6889 26.8869 76.3688 25.8372C76.2114 25.3217 76.0146 24.8008 75.8257 24.296C75.5344 23.5214 75.2301 22.7227 75.0517 21.892C74.6607 20.0944 75.2117 18.3261 76.6443 16.7796C79.4333 13.7666 83.1065 12.2415 87.5642 12.2415C87.5878 12.2415 87.6115 12.2415 87.6377 12.2415C89.9151 12.2495 91.7517 12.8611 93.2472 14.1085C95.3436 15.8581 95.8762 19.2263 94.4331 21.6196C93.2446 23.5881 91.4369 24.8382 89.8338 25.8585C87.7112 27.2074 83.8936 28.4441 81.3198 28.6204L81.2489 28.6258L81.2515 28.6204ZM87.5642 13.1443C83.3033 13.1443 79.9449 14.5359 77.295 17.3993C76.4423 18.3181 75.5135 19.8113 75.9254 21.6944C76.0907 22.4583 76.3688 23.1928 76.6626 23.9701C76.8594 24.4883 77.0615 25.0252 77.2267 25.5674C77.4603 26.3313 77.8564 26.7774 78.4756 26.9644C79.1394 27.1674 79.8347 27.3356 80.5038 27.4986C80.7819 27.5654 81.06 27.6348 81.3355 27.7043C83.7834 27.52 87.3701 26.3527 89.3694 25.0839C90.8859 24.1197 92.5965 22.9417 93.6828 21.1414C94.9028 19.1221 94.4568 16.2801 92.691 14.8057C91.3581 13.6945 89.7078 13.1496 87.6403 13.1416C87.6167 13.1416 87.5905 13.1416 87.5669 13.1416L87.5642 13.1443ZM81.3985 25.343C81.3696 25.343 81.3408 25.343 81.3093 25.3377C81.039 25.311 80.8134 25.295 80.6271 25.2816C79.5094 25.1988 79.3651 25.0973 78.9348 24.093C78.8482 23.89 78.7406 23.6362 78.5911 23.321C77.4393 20.869 78.1004 18.871 80.5536 17.3779C82.8363 15.989 85.0717 15.3052 87.3858 15.2838H87.3937H87.4016C88.9496 15.3265 90.5579 15.4948 91.6861 16.996C92.4286 17.9816 92.4234 19.2396 91.6756 20.2787C90.7914 21.5101 89.6081 22.4797 87.845 23.4279C85.6515 24.6058 83.7021 25.2041 81.7133 25.311C81.6818 25.311 81.653 25.3163 81.6215 25.3217C81.5585 25.3297 81.4824 25.3404 81.3985 25.3404V25.343ZM87.3858 16.1893C85.237 16.2107 83.1511 16.8517 81.0102 18.1552C78.9637 19.3999 78.4494 20.9171 79.3939 22.9284C79.5487 23.2569 79.6616 23.5187 79.7508 23.7297C79.8688 24.0075 79.9712 24.2452 80.0315 24.2853C80.0971 24.3307 80.3726 24.3521 80.6927 24.3761C80.8842 24.3895 81.1151 24.4082 81.3932 24.4349C81.4116 24.4375 81.4614 24.4295 81.4982 24.4242C81.5533 24.4162 81.6084 24.4082 81.6635 24.4055C83.5211 24.304 85.3524 23.7377 87.4278 22.6239C89.0676 21.7451 90.1538 20.8556 90.9567 19.7418C91.4762 19.018 91.4841 18.2166 90.9777 17.5435C90.0856 16.3602 88.821 16.2267 87.3832 16.1866L87.3858 16.1893Z" fill="#4B5EBF"/>
</g>
<g id="Group_3">
<path id="Vector_5" d="M68.7652 20.2172C68.7652 22.1805 68.8492 24.2158 68.7416 26.2405C68.634 28.2678 68.3638 30.2871 68.1171 32.3038C68.0148 33.1479 67.3878 33.5993 66.5928 33.5405C65.7873 33.4817 65.1943 32.8727 65.231 32.01C65.2704 31.0671 65.4619 30.1295 65.5013 29.184C65.6089 26.5717 65.6718 23.9594 65.7479 21.3471C65.7637 20.8155 65.7479 20.284 65.7479 19.659C64.7116 19.4773 63.6909 19.2904 62.6703 19.1221C61.7494 18.9698 60.8284 18.8416 59.9049 18.7027C59.1781 18.5932 58.7137 18.0563 58.6717 17.2764C58.6298 16.5445 59.0863 15.8367 59.8236 15.7966C60.6736 15.7512 61.5395 15.8848 62.3896 15.9943C63.4653 16.1332 64.5358 16.3281 65.7033 16.5151C65.7033 15.9061 65.6954 15.3799 65.7033 14.8537C65.7742 10.8498 65.8371 6.84854 65.9316 2.84461C65.9447 2.32642 66.0575 1.78419 66.2491 1.3034C66.5141 0.632965 67.233 0.333805 67.881 0.504753C68.6314 0.705083 69.0827 1.24197 69.0459 2.00589C68.9672 3.66997 68.7888 5.33137 68.7678 6.99544C68.7259 10.0966 68.7757 13.2003 68.7626 16.3014C68.76 16.8543 68.9567 17.02 69.4789 17.0226C70.4811 17.0306 71.4808 17.1028 72.483 17.1508C73.4013 17.1936 73.9628 17.7999 73.9418 18.7214C73.9208 19.6109 73.3646 20.1959 72.4804 20.2119C71.3207 20.2306 70.161 20.2172 68.7678 20.2172H68.7652Z" fill="#4B5EBF"/>
<path id="Vector_6" d="M66.7292 33.9999C66.6741 33.9999 66.6164 33.9999 66.5586 33.9946C65.4855 33.9171 64.7378 33.0731 64.7824 31.9913C64.8034 31.5025 64.8611 31.0163 64.9188 30.5489C64.9765 30.0735 65.0316 29.622 65.05 29.168C65.1366 27.0605 65.1969 24.9129 65.2546 22.8375L65.2966 21.3391C65.3071 20.9892 65.3045 20.6312 65.3019 20.2519C65.3019 20.1852 65.3019 20.1157 65.3019 20.0463L64.7299 19.9448C64.0162 19.8166 63.3078 19.691 62.5994 19.5762C61.9802 19.4747 61.3584 19.3838 60.7366 19.2904C60.4375 19.2449 60.1384 19.2022 59.8393 19.1568C58.9 19.0152 58.2808 18.3047 58.2257 17.3084C58.1968 16.7796 58.3674 16.2614 58.6953 15.8901C58.9813 15.5642 59.3723 15.3719 59.7973 15.3505C60.5949 15.3078 61.3951 15.4146 62.1665 15.5161L62.4446 15.5535C63.2003 15.6524 63.9402 15.7752 64.7273 15.9061C64.9031 15.9355 65.0789 15.9649 65.2573 15.9943V15.9542C65.2573 15.5696 65.2546 15.2143 65.2599 14.8564L65.2966 12.6715C65.3517 9.45014 65.4094 6.11933 65.4855 2.8446C65.4987 2.281 65.622 1.67734 65.8345 1.1458C66.1703 0.301744 67.0965 -0.157679 67.9912 0.0773746C68.9593 0.333797 69.5339 1.08437 69.4893 2.03794C69.4579 2.68434 69.4133 3.34142 69.366 3.97446C69.2952 4.97077 69.2217 6.0018 69.2086 7.01146C69.185 8.8171 69.1902 10.6548 69.1981 12.4311C69.2034 13.7265 69.2086 15.0193 69.2007 16.3148C69.2007 16.4884 69.2243 16.5472 69.2296 16.5579C69.2296 16.5579 69.2926 16.5792 69.4762 16.5819C70.2082 16.5872 70.9481 16.6273 71.6644 16.6674C71.9425 16.6834 72.2206 16.6967 72.4988 16.7101C73.6532 16.7635 74.4088 17.5809 74.38 18.7428C74.3511 19.8807 73.5902 20.6553 72.4804 20.674C71.6801 20.6873 70.8642 20.6847 70.0036 20.682C69.7438 20.682 69.4788 20.682 69.206 20.682C69.206 21.1254 69.2138 21.5741 69.2191 22.0229C69.2375 23.4118 69.2558 24.8488 69.1797 26.2779C69.0853 28.0648 68.8623 29.8651 68.6471 31.6066L68.5527 32.3732C68.4294 33.3722 67.7052 34.0133 66.7266 34.0133L66.7292 33.9999ZM60.1725 16.24C60.0623 16.24 59.9547 16.24 59.8471 16.248C59.6556 16.2587 59.4903 16.3388 59.3591 16.4884C59.1912 16.6807 59.0994 16.9639 59.1151 17.2497C59.1466 17.8186 59.451 18.1765 59.9705 18.254C60.2669 18.2994 60.566 18.3421 60.8652 18.3875C61.4896 18.481 62.1167 18.5718 62.7411 18.676C63.4548 18.7935 64.1658 18.9191 64.8847 19.0473L66.1939 19.277V19.659C66.1939 19.862 66.1939 20.0543 66.1939 20.2413C66.1966 20.6286 66.1992 20.9945 66.1887 21.3631L66.1467 22.8616C66.089 24.9397 66.0286 27.0899 65.9421 29.2054C65.9211 29.6968 65.8634 30.1883 65.803 30.6611C65.7453 31.1339 65.6902 31.5799 65.6718 32.0313C65.6482 32.6216 66.0286 33.049 66.6216 33.0918C67.2067 33.1345 67.6003 32.8193 67.6711 32.2504L67.7656 31.4811C67.9807 29.7556 68.2011 27.9713 68.2929 26.2191C68.3664 24.8221 68.348 23.3985 68.3296 22.0255C68.3218 21.4192 68.3139 20.8155 68.3139 20.2199V19.7658H68.7599C69.1955 19.7658 69.61 19.7658 70.0062 19.7685C70.8642 19.7711 71.6723 19.7738 72.4673 19.7605C73.1022 19.7498 73.4748 19.3678 73.4905 18.7134C73.5063 18.043 73.1311 17.6396 72.4568 17.6076C72.176 17.5942 71.8979 17.5782 71.6172 17.5648C70.9114 17.5275 70.182 17.4874 69.471 17.482C68.6891 17.4767 68.3113 17.0894 68.3139 16.3041C68.3192 15.0113 68.3139 13.7212 68.3113 12.4284C68.3034 10.6468 68.2982 8.80642 68.3218 6.99277C68.3349 5.95906 68.4084 4.91468 68.4818 3.90501C68.5264 3.27731 68.571 2.62557 68.6025 1.98986C68.634 1.32209 68.167 1.05498 67.7708 0.950813C67.309 0.827944 66.8315 1.05766 66.6636 1.47968C66.4904 1.91507 66.3907 2.40654 66.3776 2.8633C66.2989 6.13535 66.2438 9.46617 66.1887 12.6848L66.152 14.8697C66.1467 15.2196 66.1467 15.5722 66.1493 15.9488V17.052L65.6377 16.9692C65.2783 16.9131 64.9293 16.8543 64.5882 16.7982C63.8116 16.67 63.077 16.5472 62.3371 16.451L62.0563 16.4136C61.4319 16.3308 60.7917 16.2453 60.1725 16.2453V16.24Z" fill="#4B5EBF"/>
</g>
<g id="Group_4">
<path id="Vector_7" d="M44.6426 20.2173C44.6426 21.6223 44.7187 23.0834 44.6268 24.5338C44.4615 27.1381 44.2097 29.7397 43.9604 32.3386C43.8843 33.1453 43.1313 33.6421 42.3153 33.5166C41.4416 33.383 40.9169 32.6618 41.0166 31.7136C41.153 30.3807 41.3813 29.0506 41.4285 27.715C41.5177 25.1935 41.4967 22.6694 41.5466 20.1479C41.5571 19.6698 41.3183 19.5816 40.9379 19.5255C39.2062 19.2638 37.4772 18.9886 35.7482 18.7055C34.8797 18.5639 34.4599 17.9656 34.5334 17.0227C34.5911 16.2829 35.1631 15.6952 35.9659 15.7406C36.9629 15.7967 37.9521 15.9784 38.9412 16.1199C39.773 16.2374 40.602 16.3763 41.5151 16.5179C41.5151 16.2107 41.5151 15.965 41.5151 15.7193C41.5282 12.335 41.5204 8.95078 41.5676 5.56654C41.5833 4.3886 41.7093 3.21065 41.8247 2.03806C41.8955 1.32755 42.234 0.747932 42.9424 0.528904C43.601 0.325903 44.1861 0.574313 44.5744 1.11387C44.7659 1.38365 44.8551 1.79232 44.8472 2.13422C44.7633 6.16218 44.6505 10.1875 44.556 14.2154C44.5376 14.9553 44.6006 15.6979 44.5849 16.4378C44.5744 16.8705 44.7554 17.0067 45.1463 17.0201C46.1932 17.0575 47.2401 17.1136 48.2869 17.1616C49.2131 17.2044 49.7667 17.7893 49.751 18.7055C49.7352 19.6163 49.1554 20.2093 48.2423 20.22C47.0827 20.2334 45.9256 20.2227 44.6478 20.2227L44.6426 20.2173Z" fill="#4B5EBF"/>
<path id="Vector_8" d="M42.562 33.9894C42.4571 33.9894 42.3521 33.9814 42.2472 33.9654C41.1373 33.7944 40.4499 32.8489 40.5706 31.6656C40.6152 31.2195 40.6729 30.7734 40.728 30.33C40.8356 29.4646 40.9484 28.5725 40.9799 27.699C41.035 26.1632 41.0481 24.5979 41.0612 23.0834C41.0691 22.1005 41.077 21.1202 41.098 20.1373C41.098 20.0731 41.0927 20.0384 41.0901 20.0197C41.0639 20.009 41.0062 19.9903 40.8697 19.969C39.2666 19.7259 37.5664 19.4588 35.6747 19.149C34.5911 18.9727 33.9956 18.1607 34.0874 16.9827C34.1661 15.957 34.9873 15.2278 35.9896 15.2839C36.7636 15.3293 37.5376 15.4442 38.2853 15.559C38.5241 15.5964 38.7629 15.6312 39.0016 15.6659C39.5762 15.7487 40.1482 15.8395 40.749 15.933L41.0691 15.9837C41.0691 15.8903 41.0691 15.8021 41.0691 15.7113C41.0717 14.7657 41.0744 13.8202 41.077 12.872C41.0822 10.4733 41.0875 7.99459 41.1216 5.5559C41.1373 4.44741 41.2475 3.33358 41.3551 2.25714L41.3813 1.98736C41.4758 1.02043 41.9848 0.344654 42.8139 0.0882316C43.6246 -0.162849 44.417 0.117613 44.9339 0.838801C45.17 1.16734 45.3038 1.65081 45.2933 2.13427C45.2435 4.54357 45.1831 6.95287 45.1202 9.36217C45.0782 10.9808 45.0388 12.5968 44.9995 14.2155C44.9916 14.5734 45.0021 14.9447 45.0126 15.3026C45.0231 15.6739 45.0362 16.0559 45.0257 16.4378C45.0257 16.4886 45.0257 16.5206 45.0309 16.542C45.0546 16.5473 45.0939 16.5527 45.1569 16.5554C45.8968 16.5821 46.6367 16.6168 47.3766 16.6542L48.3027 16.6996C49.4703 16.753 50.2128 17.541 50.1918 18.7056C50.1708 19.8648 49.389 20.6528 48.2424 20.6635C47.4369 20.6715 46.634 20.6715 45.7892 20.6688C45.5583 20.6688 45.3274 20.6688 45.0887 20.6688C45.0887 20.9519 45.0965 21.2377 45.1018 21.5235C45.1175 22.5145 45.1359 23.5402 45.0703 24.5632C44.9103 27.0607 44.6689 29.5902 44.4354 32.0369L44.4039 32.3814C44.3593 32.8622 44.1284 33.2869 43.7558 33.5834C43.4252 33.8452 43.0028 33.9867 42.5646 33.9867L42.562 33.9894ZM35.8715 16.1894C35.2995 16.1894 35.0057 16.6301 34.9742 17.0548C34.9034 17.9977 35.4202 18.1927 35.8164 18.2568C37.7055 18.5667 39.4004 18.8338 41.0009 19.0742C41.3026 19.1196 42.0084 19.2264 41.99 20.156C41.9717 21.1336 41.9638 22.1112 41.9533 23.0915C41.9402 24.6113 41.9271 26.1845 41.872 27.7311C41.8405 28.6446 41.7251 29.5581 41.6149 30.4449C41.5598 30.883 41.5047 31.321 41.4601 31.7617C41.3866 32.4696 41.7408 32.9717 42.3836 33.0706C42.6906 33.1186 42.9923 33.0465 43.2101 32.8729C43.336 32.7741 43.4934 32.5924 43.5197 32.2986L43.5538 31.954C43.7873 29.5154 44.0287 26.9912 44.1861 24.5071C44.2491 23.5242 44.2333 22.5172 44.215 21.5422C44.2071 21.0962 44.1992 20.6554 44.1992 20.2201V19.766H44.6453C45.0388 19.766 45.4193 19.766 45.7944 19.766C46.634 19.766 47.4343 19.7686 48.2371 19.7606C48.9036 19.7526 49.2945 19.3626 49.305 18.6922C49.3181 18.0244 48.9482 17.6398 48.266 17.6078L47.3372 17.5623C46.6026 17.5276 45.8653 17.4902 45.1306 17.4662C44.2937 17.4368 44.1284 16.8812 44.1415 16.4191C44.1494 16.0612 44.1389 15.6926 44.1284 15.332C44.1179 14.9607 44.1048 14.5788 44.1153 14.1968C44.152 12.5781 44.194 10.9595 44.236 9.34081C44.2963 6.93417 44.3593 4.52487 44.4091 2.11824C44.4144 1.83778 44.3383 1.54129 44.2202 1.37569C44.0129 1.08721 43.6482 0.780038 43.0789 0.956328C42.604 1.10324 42.3311 1.48253 42.2734 2.07818L42.2472 2.34795C42.1422 3.4057 42.0346 4.50083 42.0189 5.56926C41.9874 8.0026 41.9796 10.4813 41.9743 12.8746C41.9743 13.8202 41.9691 14.7684 41.9664 15.714C41.9664 15.8742 41.9664 16.0345 41.9664 16.2108V17.0388L40.6178 16.8278C40.0223 16.7343 39.4555 16.6435 38.8862 16.5634C38.6448 16.5286 38.4034 16.4912 38.162 16.4565C37.4326 16.347 36.6822 16.2322 35.9476 16.1894C35.9266 16.1894 35.903 16.1894 35.882 16.1894H35.8715Z" fill="#4B5EBF"/>
</g>
<g id="Group_5">
<path id="Vector_9" d="M102.068 16.4966C102.068 13.5478 102.034 10.7004 102.079 7.85305C102.107 6.002 102.22 4.15362 102.349 2.30525C102.459 0.723975 103.624 0.0268268 104.81 0.774725C105.424 1.16203 105.471 1.74699 105.432 2.40942C105.29 4.90419 105.138 7.39897 105.072 9.89641C105.012 12.2096 105.059 14.5254 105.059 16.948C106.235 17.0201 107.266 17.0843 108.299 17.1457C108.504 17.1564 108.709 17.1484 108.916 17.1617C109.782 17.2071 110.291 17.7493 110.301 18.6281C110.312 19.587 109.782 20.2121 108.877 20.2067C107.785 20.2014 106.694 20.1293 105.6 20.0892C105.51 20.0865 105.421 20.1026 105.24 20.1186C105.24 20.3964 105.248 20.6688 105.24 20.9386C105.133 23.8047 105.043 26.6734 104.896 29.5394C104.849 30.4796 104.663 31.4172 104.513 32.3521C104.39 33.1213 103.768 33.5968 103.007 33.5434C102.215 33.4873 101.64 32.9771 101.638 32.1838C101.635 31.4012 101.787 30.6185 101.816 29.8333C101.932 26.5746 102.021 23.3132 102.128 20.0545C102.144 19.5683 101.808 19.579 101.493 19.531C99.7881 19.2612 98.0853 18.9433 96.372 18.7403C95.5297 18.6415 95.0444 17.8989 95.0785 17.0869C95.11 16.299 95.7554 15.6686 96.6107 15.7434C97.899 15.8529 99.1767 16.0906 100.46 16.2722C100.977 16.3444 101.491 16.4192 102.073 16.502L102.068 16.4966Z" fill="#4B5EBF"/>
<path id="Vector_10" d="M103.123 34.0001C103.073 34.0001 103.023 34.0001 102.973 33.9948C101.911 33.92 101.192 33.1934 101.189 32.1838C101.189 31.7244 101.236 31.2703 101.284 30.8295C101.32 30.4796 101.357 30.1484 101.368 29.8145C101.436 27.8994 101.494 25.9842 101.554 24.0691C101.596 22.7255 101.638 21.382 101.68 20.0384C101.68 20.0304 101.68 20.0224 101.68 20.0171C101.635 20.0091 101.575 19.9984 101.53 19.993L101.42 19.977C100.906 19.8969 100.392 19.8114 99.8773 19.7233C98.7097 19.5283 97.5028 19.3279 96.3143 19.1864C95.2937 19.0662 94.5826 18.174 94.6272 17.0655C94.6482 16.55 94.8634 16.0826 95.2386 15.746C95.6164 15.4068 96.1149 15.2439 96.6422 15.2866C97.5606 15.3641 98.4841 15.5083 99.3762 15.6472C99.7566 15.706 100.137 15.7647 100.517 15.8182L101.625 15.9757C101.625 15.2679 101.622 14.5681 101.619 13.8709C101.612 11.8009 101.606 9.84565 101.638 7.84769C101.667 5.94857 101.787 4.04677 101.911 2.27585C101.979 1.31427 102.396 0.566367 103.06 0.219128C103.658 -0.0907154 104.382 -0.0292809 105.049 0.392748C105.964 0.969698 105.912 1.92594 105.88 2.43878L105.831 3.31222C105.707 5.47579 105.579 7.71147 105.521 9.90976C105.479 11.5017 105.489 13.0696 105.5 14.7284C105.503 15.3213 105.508 15.9197 105.508 16.5233L106.043 16.5554C106.841 16.6034 107.586 16.6489 108.328 16.6943C108.425 16.6996 108.525 16.6996 108.622 16.7023C108.727 16.7023 108.835 16.7023 108.94 16.7103C110.042 16.7691 110.734 17.5036 110.745 18.6254C110.75 19.2505 110.564 19.7767 110.207 20.1426C109.874 20.4845 109.42 20.6742 108.871 20.6608C108.121 20.6555 107.363 20.6207 106.631 20.5887C106.316 20.5753 106.001 20.5593 105.686 20.5459C105.686 20.6822 105.686 20.8184 105.681 20.9546C105.652 21.6865 105.626 22.4157 105.6 23.1476C105.524 25.2497 105.445 27.4239 105.335 29.5635C105.295 30.3354 105.167 31.1047 105.041 31.8472C105.009 32.0395 104.975 32.2319 104.946 32.4242C104.794 33.3697 104.054 34.0001 103.118 34.0001H103.123ZM96.4743 16.1868C96.2277 16.1868 96.0021 16.2696 95.8289 16.4245C95.64 16.5954 95.5298 16.8358 95.5167 17.1029C95.4957 17.6211 95.7685 18.2114 96.4192 18.2889C97.6288 18.4331 98.8462 18.6361 100.022 18.8311C100.533 18.9166 101.045 19.0021 101.556 19.0822L101.648 19.0956C101.908 19.1303 102.598 19.2238 102.569 20.0705C102.525 21.414 102.483 22.7576 102.443 24.0985C102.383 26.0163 102.325 27.9314 102.257 29.8493C102.244 30.2152 102.205 30.5785 102.168 30.9284C102.121 31.3611 102.079 31.7724 102.079 32.1811C102.079 32.71 102.438 33.0492 103.034 33.0919C103.577 33.1293 103.986 32.8115 104.07 32.2799C104.102 32.0849 104.133 31.89 104.167 31.695C104.288 30.9791 104.411 30.2366 104.448 29.5181C104.558 27.3865 104.637 25.2176 104.71 23.1182C104.736 22.3863 104.763 21.6544 104.792 20.9252C104.799 20.7489 104.797 20.5727 104.792 20.3937C104.792 20.3055 104.792 20.2147 104.792 20.1239V19.7072L105.198 19.6725C105.259 19.6672 105.308 19.6618 105.353 19.6565C105.445 19.6458 105.524 19.6378 105.613 19.6404C105.964 19.6538 106.319 19.6698 106.67 19.6859C107.394 19.7206 108.142 19.7553 108.874 19.758H108.882C109.176 19.758 109.409 19.6725 109.572 19.5069C109.758 19.3173 109.855 19.0154 109.853 18.6388C109.847 17.9977 109.522 17.6532 108.89 17.6211C108.798 17.6158 108.704 17.6158 108.612 17.6158C108.499 17.6158 108.386 17.6158 108.273 17.6078C107.528 17.565 106.783 17.5196 105.985 17.4689L104.613 17.3861V16.9587C104.613 16.2108 104.608 15.4736 104.605 14.7444C104.595 13.0776 104.584 11.5017 104.626 9.8964C104.684 7.68476 104.813 5.43839 104.936 3.26949L104.986 2.39605C105.025 1.69089 104.925 1.3944 104.574 1.1727C104.172 0.918948 103.776 0.870868 103.459 1.03647C103.078 1.23413 102.837 1.71225 102.792 2.35064C102.669 4.1082 102.551 5.99664 102.522 7.87173C102.491 9.86168 102.498 11.8116 102.504 13.879C102.506 14.7471 102.509 15.6232 102.509 16.51V17.0308L100.389 16.7263C100.006 16.6729 99.6202 16.6115 99.2371 16.5527C98.3608 16.4165 97.453 16.2749 96.5635 16.2001C96.5321 16.1974 96.5006 16.1948 96.4691 16.1948L96.4743 16.1868Z" fill="#4B5EBF"/>
</g>
<g id="Group_6">
<path id="Vector_11" d="M11.2478 6.69625C11.0668 8.56867 10.8044 10.3743 10.7283 12.1906C10.5289 16.9131 11.2609 21.5474 12.1294 26.1656C12.334 27.2528 12.5282 28.3452 12.6778 29.4404C12.7565 30.02 12.5702 30.5569 12.0402 30.8747C11.484 31.2086 10.8779 31.2193 10.3689 30.824C10.0908 30.6076 9.82839 30.231 9.77067 29.8918C9.07538 25.7249 8.28826 21.5687 7.79238 17.3778C7.39095 13.9749 7.59297 10.5372 8.17019 7.14499C8.2043 6.94733 8.22529 6.747 8.25153 6.57071C6.47527 6.57071 4.74886 6.57071 3.02244 6.57071C2.72596 6.57071 2.42948 6.58674 2.133 6.59475C1.14648 6.61879 0.51154 6.08725 0.451194 5.19244C0.393472 4.32968 0.975939 3.59514 1.93098 3.53905C3.63377 3.43755 5.34182 3.41084 7.04986 3.38947C10.6129 3.34673 14.1261 3.85691 17.6313 4.43653C18.5943 4.59679 19.1374 5.21915 19.0508 6.04985C18.9563 6.95801 18.387 7.51359 17.411 7.42545C15.7344 7.2732 14.071 7.01143 12.3996 6.80309C12.0664 6.76035 11.7306 6.74433 11.2504 6.70159L11.2478 6.69625Z" fill="#4B5EBF"/>
<path id="Vector_12" d="M11.2111 31.5773C10.8176 31.5773 10.4371 31.4464 10.0987 31.1819C9.70513 30.8774 9.4034 30.3993 9.33256 29.9639C9.16726 28.9756 8.99672 27.99 8.82618 27.0044C8.28569 23.8739 7.72946 20.6392 7.34902 17.4286C6.96858 14.1993 7.09189 10.8097 7.72946 7.06222C7.72946 7.0462 7.73471 7.03284 7.73733 7.01681H6.91611C5.60424 7.01681 4.31075 7.01681 3.01725 7.01681C2.83359 7.01681 2.6473 7.02483 2.46364 7.03017C2.35607 7.03284 2.2485 7.03818 2.1383 7.04085C0.913021 7.07825 0.0812999 6.35706 0.00521185 5.21919C-0.0315203 4.67162 0.136398 4.15343 0.477482 3.76078C0.826438 3.36012 1.33282 3.11973 1.90217 3.085C3.62333 2.9835 5.38385 2.95412 7.04204 2.93542C10.7467 2.89002 14.4882 3.45628 17.6996 3.98782C18.8987 4.18548 19.6018 5.01351 19.4916 6.09529C19.3683 7.29995 18.5523 7.9784 17.369 7.87422C16.2198 7.77005 15.0602 7.61246 13.9398 7.46021C13.4072 7.38809 12.8746 7.31597 12.342 7.2492C12.1268 7.22248 11.9117 7.20646 11.6572 7.18509C11.6546 7.18509 11.6493 7.18509 11.6467 7.18509C11.6021 7.62582 11.5522 8.06387 11.5024 8.49925C11.3607 9.77602 11.2243 10.9833 11.1744 12.212C10.9698 17.0841 11.7857 21.9267 12.5676 26.0829C12.7513 27.0658 12.9612 28.2277 13.1186 29.3817C13.2288 30.1883 12.9166 30.8774 12.2685 31.2674C11.9195 31.4758 11.5627 31.5799 11.2138 31.5799L11.2111 31.5773ZM5.61474 6.11132C6.04765 6.11132 6.48319 6.11132 6.91873 6.11132H8.76321L8.66875 6.79511C8.65039 6.93134 8.63202 7.07558 8.60841 7.21714C7.98659 10.8765 7.86327 14.1806 8.23584 17.3191C8.61366 20.5057 9.16726 23.7297 9.70513 26.8468C9.87567 27.8351 10.0462 28.8234 10.2115 29.8117C10.2456 30.0147 10.4345 30.3005 10.6418 30.4608C11.08 30.8 11.5234 30.6611 11.8172 30.4821C12.1583 30.2765 12.3 29.9479 12.2396 29.4992C12.0875 28.364 11.8776 27.2181 11.6965 26.2458C10.9068 22.0389 10.0803 17.1375 10.2876 12.1666C10.3401 10.9059 10.4844 9.62644 10.6208 8.38974C10.6864 7.81279 10.7494 7.23317 10.8071 6.64821L10.8517 6.20481L11.2899 6.2422C11.4499 6.25556 11.5942 6.26624 11.728 6.27693C11.9983 6.2983 12.2265 6.31699 12.4548 6.3437C12.99 6.41048 13.5253 6.4826 14.0605 6.55472C15.173 6.7043 16.3222 6.86189 17.4504 6.96339C18.1457 7.0275 18.5366 6.69896 18.6074 5.99112C18.694 5.15241 17.9016 4.92804 17.5579 4.87195C14.2363 4.32171 10.6838 3.78749 7.05254 3.83023C5.33925 3.8516 3.65744 3.87564 1.95464 3.97981C1.61618 4.00118 1.33806 4.12939 1.14391 4.35109C0.960248 4.5621 0.871041 4.84524 0.892031 5.14974C0.949753 6.02852 1.68177 6.1407 2.11993 6.13002C2.22488 6.12735 2.32983 6.12468 2.43478 6.11933C2.62894 6.11132 2.82309 6.10598 3.01987 6.10598C3.88308 6.10598 4.74628 6.10598 5.61474 6.10598V6.11132Z" fill="#4B5EBF"/>
</g>
<g id="Group_7">
<path id="Vector_13" d="M126.831 27.1059C125.823 27.918 124.871 28.9143 123.73 29.5607C121.326 30.9202 118.787 31.0645 116.278 29.7717C114.678 28.9463 113.815 27.4826 113.264 25.8185C112.663 24.0075 112.49 22.1217 112.442 20.2199C112.421 19.3866 112.369 18.5559 112.343 17.7225C112.309 16.6033 112.846 15.9542 113.804 15.9436C114.775 15.9329 115.407 16.6033 115.428 17.6744C115.475 19.846 115.462 22.0122 115.927 24.1624C116.667 27.5974 119.45 27.9901 121.804 27.0739C124.173 26.1497 125.07 24.109 125.406 21.7585C125.656 20.0196 125.766 18.2621 125.947 16.5125C126.054 15.4922 126.537 15.0568 127.497 15.0781C128.342 15.0968 128.967 15.7219 128.975 16.6514C129.022 21.1308 129.578 25.546 130.475 29.9266C130.738 31.2034 130.36 31.9085 129.329 32.205C128.534 32.4347 127.831 32.0821 127.647 31.2648C127.35 29.9399 127.12 28.5964 126.862 27.2609C126.841 27.154 126.82 27.0499 126.831 27.1006V27.1059Z" fill="#4B5EBF"/>
<path id="Vector_14" d="M128.864 32.7312C128.547 32.7312 128.245 32.6511 127.988 32.4962C127.594 32.2585 127.327 31.8685 127.214 31.3717C127.004 30.4315 126.823 29.4725 126.652 28.5457C126.616 28.3427 126.576 28.1424 126.54 27.9394C126.427 28.0382 126.311 28.137 126.196 28.2412C125.498 28.8529 124.777 29.4886 123.947 29.956C121.363 31.4198 118.642 31.4972 116.079 30.1777C114.565 29.3978 113.536 28.0596 112.841 25.9654C112.172 23.9461 112.038 21.8413 111.996 20.236C111.986 19.7926 111.965 19.3519 111.944 18.9085C111.925 18.5185 111.907 18.1312 111.897 17.7412C111.876 17.028 112.059 16.4431 112.432 16.0478C112.765 15.6925 113.237 15.5029 113.796 15.4949C115.011 15.4788 115.843 16.3549 115.872 17.6691L115.887 18.4063C115.921 20.2761 115.958 22.2072 116.36 24.0717C116.63 25.3244 117.199 26.1978 118.049 26.6626C118.994 27.1808 120.303 27.1781 121.644 26.6546C123.53 25.92 124.585 24.3441 124.965 21.6971C125.128 20.5672 125.23 19.4053 125.333 18.2781C125.388 17.6744 125.44 17.0708 125.503 16.4671C125.634 15.2197 126.306 14.6054 127.508 14.6268C128.605 14.6508 129.41 15.5029 129.42 16.6488C129.462 20.829 129.95 25.1427 130.911 29.8358C131.218 31.3289 130.724 32.2745 129.449 32.6431C129.25 32.6992 129.053 32.7286 128.862 32.7286L128.864 32.7312ZM127.272 27.0472C127.282 27.09 127.29 27.1327 127.298 27.1808C127.374 27.5788 127.45 27.9794 127.524 28.3774C127.694 29.2963 127.872 30.2472 128.08 31.1687C128.135 31.4198 128.261 31.6094 128.439 31.7162C128.641 31.8391 128.914 31.8578 129.205 31.7723C129.88 31.5773 130.281 31.2061 130.037 30.0228C129.066 25.271 128.573 20.9011 128.528 16.6621C128.521 15.9943 128.111 15.5509 127.484 15.5376C126.752 15.5216 126.466 15.7913 126.385 16.5686C126.322 17.1669 126.269 17.7653 126.214 18.3663C126.112 19.5041 126.007 20.6794 125.842 21.8333C125.411 24.8382 124.178 26.6412 121.959 27.504C120.353 28.129 118.813 28.1156 117.624 27.4639C116.551 26.8736 115.811 25.7704 115.489 24.2693C115.069 22.3168 115.029 20.3402 114.995 18.4277L114.98 17.6931C114.961 16.8651 114.539 16.3977 113.804 16.403C113.484 16.4057 113.237 16.4992 113.072 16.6755C112.867 16.8918 112.768 17.2497 112.783 17.7145C112.794 18.0991 112.812 18.4838 112.831 18.8684C112.852 19.3172 112.873 19.7659 112.883 20.2146C112.923 21.7585 113.051 23.7725 113.681 25.6796C114.295 27.5334 115.184 28.7086 116.475 29.3737C118.794 30.5677 121.161 30.5009 123.509 29.1707C124.257 28.746 124.944 28.145 125.608 27.5601C125.878 27.3223 126.159 27.0766 126.44 26.8442L126.723 26.5825L126.967 26.6653C127.151 26.7294 127.219 26.8522 127.261 27.0098L127.269 27.0472H127.272Z" fill="#4B5EBF"/>
</g>
<g id="Group_8">
<path id="Vector_15" d="M52.0207 30.4343C52.2489 29.2216 52.4955 27.7659 52.7946 26.3235C53.2512 24.1199 53.4689 21.9056 53.4007 19.6512C53.364 18.4091 53.4899 17.1591 53.587 15.9144C53.6421 15.1825 54.1406 14.7551 54.9172 14.6696C55.5732 14.5975 56.2055 14.9768 56.4154 15.6072C56.502 15.8663 56.5518 16.1494 56.5466 16.4219C56.5256 17.8535 56.46 19.2852 56.4469 20.7169C56.4233 23.7165 55.8093 26.6307 55.2688 29.5555C55.177 30.055 55.0904 30.5545 54.9802 31.0486C54.7782 31.9675 54.1327 32.4349 53.2486 32.3174C52.4877 32.2185 51.9944 31.5588 52.018 30.4316L52.0207 30.4343Z" fill="#4B5EBF"/>
<path id="Vector_16" d="M53.5109 32.7901C53.4086 32.7901 53.301 32.7821 53.1934 32.7687C52.1675 32.6352 51.5457 31.735 51.5772 30.4235L51.5851 30.3487C51.6507 29.9908 51.7215 29.6142 51.7923 29.2215C51.9603 28.2973 52.1492 27.253 52.3617 26.2299C52.8287 23.9862 53.0229 21.8387 52.9599 19.6645C52.9284 18.596 53.015 17.5196 53.099 16.4779L53.1462 15.8796C53.217 14.9527 53.8625 14.333 54.8726 14.2208C55.741 14.1247 56.5675 14.6482 56.8404 15.4655C56.948 15.7861 57.0004 16.1199 56.9952 16.4325C56.9847 17.0708 56.9663 17.7066 56.948 18.3449C56.9243 19.1249 56.9007 19.9316 56.8955 20.7249C56.8745 23.4413 56.3707 26.1124 55.8853 28.6953L55.6545 29.9374C55.581 30.3354 55.5075 30.7467 55.4183 31.1527C55.1901 32.1864 54.4738 32.7954 53.5135 32.7954L53.5109 32.7901ZM52.464 30.4796C52.4588 30.9737 52.5663 31.7724 53.3062 31.8686C53.97 31.954 54.3977 31.6362 54.5472 30.9497C54.6338 30.5597 54.7073 30.1564 54.7781 29.7664L55.0116 28.519C55.4892 25.9762 55.9851 23.3452 56.006 20.7115C56.0113 19.9102 56.0349 19.0982 56.0585 18.3129C56.0769 17.6799 56.0952 17.0468 56.1057 16.4138C56.1084 16.2081 56.069 15.973 55.9955 15.7513C55.8565 15.3347 55.4262 15.0702 54.967 15.1183C54.0881 15.2145 54.0461 15.7674 54.033 15.9463L53.9858 16.55C53.9044 17.5677 53.8205 18.6174 53.8493 19.6351C53.9149 21.8841 53.7129 24.1011 53.2328 26.4142C53.0229 27.4266 52.834 28.4656 52.666 29.3845C52.5978 29.7638 52.5296 30.1324 52.4666 30.4796H52.464Z" fill="#4B5EBF"/>
</g>
<g id="Group_9">
<path id="Vector_17" d="M56.6331 10.1983C56.6174 11.4243 54.9723 12.7438 53.8362 12.3645C53.4636 12.239 53.0727 11.8463 52.9022 11.475C52.3407 10.2517 52.9887 8.77459 54.1852 8.36859C55.3632 7.9706 56.6515 8.93219 56.6331 10.1983Z" fill="#4B5EBF"/>
<path id="Vector_18" d="M54.2639 12.8853C54.0671 12.8853 53.8756 12.856 53.6946 12.7945C53.2223 12.6369 52.729 12.1722 52.4955 11.6673C52.1754 10.9702 52.1676 10.1582 52.4745 9.43432C52.7763 8.71847 53.3482 8.17358 54.0409 7.93852C54.7283 7.70614 55.5049 7.83702 56.1136 8.2911C56.725 8.74786 57.0844 9.46103 57.0739 10.2063C57.0634 10.9568 56.5833 11.7662 55.8172 12.3217C55.3082 12.693 54.765 12.8853 54.2613 12.8853H54.2639ZM54.7362 8.73183C54.5971 8.73183 54.4581 8.7532 54.3243 8.79861C53.8704 8.95086 53.4952 9.31412 53.2931 9.79224C53.0885 10.2784 53.0911 10.8206 53.3036 11.2827C53.4322 11.5605 53.7313 11.8516 53.9727 11.9344C54.3295 12.0546 54.8411 11.9211 55.3029 11.5845C55.825 11.2052 56.1792 10.647 56.1845 10.1929C56.1897 9.74149 55.9667 9.30611 55.5889 9.02298C55.3318 8.83066 55.03 8.73183 54.7336 8.73183H54.7362Z" fill="#4B5EBF"/>
</g>
</g>
<defs>
<clipPath id="clip0_7_1109">
<rect width="131" height="34" fill="white"/>
</clipPath>
</defs>
</svg>
